<svg xmlns="http://www.w3.org/2000/svg" viewBox="0 0 80 80"><title>G-setbg</title><path d="M79.14,42.06,42.06,79.14a2.89,2.89,0,0,1-4.12,0L.86,42.06a2.9,2.9,0,0,1,0-4.12L37.94.86a2.9,2.9,0,0,1,4.12,0L79.14,37.94A2.89,2.89,0,0,1,79.14,42.06Z" fill="#311b92"/><path d="M40,0V40H0a2.92,2.92,0,0,1,.86-2.06L37.94.86A2.92,2.92,0,0,1,40,0Z" fill="#311b92"/><path d="M40,0V40H80a2.92,2.92,0,0,0-.86-2.06L42.06.86A2.92,2.92,0,0,0,40,0Z" fill="#512da8"/><path d="M40,80V40H80a2.92,2.92,0,0,1-.86,2.06L42.06,79.14A2.92,2.92,0,0,1,40,80Z" fill="#5e35b1"/><path d="M40,80V40H0a2.92,2.92,0,0,0,.86,2.06L37.94,79.14A2.92,2.92,0,0,0,40,80Z" fill="#4527a0"/><text transform="translate(19.67 57.03)" font-size="50" fill="#fff" font-family="ArialRoundedMTBold, Arial Rounded MT Bold">G</text></svg>